<svg xmlns="http://www.w3.org/2000/svg" width="24" height="24" fill="none" viewBox="0 0 24 24"><path fill="#fff" stroke="#fff" stroke-width=".5" d="M23.25 20.5h.25v-2h-9.037A8.48 8.48 0 0 0 17.5 12c0-4.687-3.813-8.5-8.5-8.5S.5 7.313.5 12s3.813 8.5 8.5 8.5zM9 5.5c3.583 0 6.5 2.916 6.5 6.5s-2.917 6.5-6.5 6.5A6.51 6.51 0 0 1 2.5 12c0-3.584 2.917-6.5 6.5-6.5Zm0 3.25A3.253 3.253 0 0 0 5.75 12 3.253 3.253 0 0 0 9 15.25 3.253 3.253 0 0 0 12.25 12 3.253 3.253 0 0 0 9 8.75Zm0 2a1.25 1.25 0 1 1 0 2.5 1.25 1.25 0 0 1 0-2.5Z"/></svg>