<svg xmlns="http://www.w3.org/2000/svg" data-name="Layer 2" viewBox="0 0 260.76 24.93"><path d="M162.43 24.93 168.62.01l9.4-.01 2.69 18.02L192.41 0h8.83l-6.32 24.93h-7.04l5.25-21.34-13.91 21.32-5.05.02-3.14-21.34-5.29 21.34zM56.2 0c-.42.83-.42 2.23-.8 3.01-.04.08-.04.18-.15.2h-14.6c-.67.14-1.01.47-1.25 1.09-.22.54-.83 2.83-.86 3.36-.03.65.35.89.94.94 3.21.3 6.88-.23 10.14 0 2.64.18 3.61 1.57 3.33 4.15-.21 1.95-1.29 5.65-1.88 7.62-.7 2.3-2.47 4.55-5.13 4.55H27.16l.72-3.22h14.74c.5-.06.83-.29 1.09-.71.29-.46 1.18-3.95 1.2-4.54.03-.65-.34-.88-.94-.94-3.29-.31-7.08.3-10.39 0-2.65-.24-3.41-1.95-2.99-4.4.33-1.94 1.03-4.65 1.61-6.54C32.9 2.28 34.7 0 37.33 0zm173.72 24.93 6.2-24.92 8.73.08 7.66 19.73L257.44 0h3.32l-6.2 24.91h-8.49l-7.81-20.15-5.02 20.17zM104.43 0l-.87 3.23-13.21.04-1.88 7.49h12.1c-.21.43-.68 3.12-.95 3.21l-11.96.05-1.97 7.67h13.27l-.72 3.23H77.62L83.81 0zm23.84 0-.87 3.23-13.21.04-1.88 7.49h12.1c-.21.43-.68 3.12-.95 3.21l-11.96.05-1.97 7.67h13.27l-.72 3.23h-20.62L107.66 0h20.62Zm69.65 24.93L215.27.1l.26-.1h6.23l5.11 24.93h-7.89l-1.35-7.08h-11.34l-4.93 7.08h-3.45Zm10.67-10.31h8.43L215 5.3zM81.3 0l-.73 3.08-.13.14-7.65.02-5.43 21.69h-7.21l5.37-21.7h-7.57l-.1-.18.77-3.05zm57.55 0-5.47 21.7h13.27l-.72 3.23h-20.62L131.5 0zM6.37 0 0 24.93h3.37L9.75 0zm6.99 0L6.99 24.93h3.37L16.73 0zm6.99 0-6.38 24.93h3.62L23.96 0z" data-name="Layer 1" style="fill:#ed1c24"/></svg>