<svg xmlns="http://www.w3.org/2000/svg" viewBox="0 0 185.97 81.78"><path d="M182.36.06v78.28h-19.73l-.11-78.35h-25.95l13.02 33.43 9.47-23.41.11 42.69-3.12 9.81H142.9L116.85 0H86.61v56.05H66.77V0H39.84c9.53 3.65 15.79 12.6 15.79 24.29H36.12V0h-3.34v16.82h-2.9c-3.12 0-6.47 1.34-6.47 5.35 0 11.82 33.33 5.46 33.33 32.77 0 15.05-11.15 24.75-26.86 24.75-1.34 0-2.68-.11-3.9-.22V60.52h3.9c3.01 0 7.02-.89 7.02-5.57 0-10.92-33.1-6.13-33.1-32.77C3.8 11.33 9.7 3.38 19.04 0H4.23C1.89 0 0 1.89 0 4.23v73.31c0 2.34 1.89 4.23 4.23 4.23h177.51c2.34 0 4.23-1.89 4.23-4.23V4.23c0-2.13-1.57-3.87-3.61-4.17M22.64 78.79C10.83 76 2.91 66.19 2.91 52.71h19.73zm85.71-.44H66.77V59.4h41.58zm28.08 0H116.7V8.24l19.73 47.48z" data-name="Layer_1" style="fill:#cc5200"/></svg>