<svg xmlns="http://www.w3.org/2000/svg" width="24" height="24" fill="none" viewBox="0 0 24 24"><path fill="#fff" d="M17.54.96H6.468a1 1 0 0 0-.799 1.605l3.119 4.151v2.828l-.368.1a1 1 0 0 0 .36 1.944l.015 1.64-.368.1a1 1 0 0 0 .368 1.937l-.007 1.648-.375.077a1 1 0 0 0-.707 1.23 1 1 0 0 0 1.067.715v.721a.9.9 0 0 0 .085.382c.05.121.121.232.212.325l2.228 2.227a1 1 0 0 0 1.414 0l2.213-2.213q.138-.142.212-.325a.9.9 0 0 0 .085-.382l-.007-2.411.368-.099a1 1 0 0 0 .714-1.223 1 1 0 0 0-1.068-.729l.007-1.647.368-.1a1 1 0 0 0 .438-.254 1 1 0 0 0-.792-1.64l.008-1.648.367-.099a1 1 0 0 0 .439-.254 1 1 0 0 0-.813-1.69V6.758l3.125-4.157a1 1 0 0 0 .092-1.054A1 1 0 0 0 17.54.96m-4.32 18.293-1.216 1.216-1.216-1.216v-.806l2.453-.63zm-.007-3.528-2.446.678v-1.612l2.418-.65zm.007-3.684-2.432.65.007-1.62 2.446-.678zm0-3.692-2.453.63V7.367h2.432zm.502-2.962h-3.436L8.468 2.96h7.071z"/></svg>