<svg xmlns="http://www.w3.org/2000/svg" viewBox="0 0 52.87 53.28"><path d="M39.08 31.85c-.65-.36-3.85-2.08-4.45-2.32s-1.04-.37-1.5.28c-.46.64-1.79 2.09-2.19 2.52s-.79.47-1.44.11-2.76-1.14-5.2-3.49c-1.9-1.83-3.15-4.05-3.51-4.73s0-1.02.34-1.34c.31-.29.69-.75 1.04-1.12.34-.37.46-.65.7-1.08s.14-.82-.01-1.16-1.36-3.65-1.86-4.99c-.5-1.35-1.06-1.15-1.45-1.16s-.83-.09-1.27-.1c-.44-.02-1.17.12-1.8.76s-2.41 2.18-2.53 5.44 2.13 6.5 2.45 6.95c.31.46 4.31 7.52 10.94 10.43 6.64 2.91 6.67 2.02 7.89 1.96s3.98-1.46 4.59-2.98c.61-1.53.66-2.85.5-3.13s-.59-.47-1.24-.82ZM26.91 47.56c-4.39 0-8.47-1.32-11.89-3.57l-8.3 2.66 2.7-8.02a21.46 21.46 0 0 1-4.11-12.67c0-11.92 9.69-21.61 21.6-21.61s21.61 9.69 21.61 21.61-9.69 21.61-21.61 21.61Zm0-47.56C12.58 0 .96 11.62.96 25.95c0 4.9 1.36 9.49 3.73 13.4L0 53.28l14.37-4.6a25.8 25.8 0 0 0 12.54 3.23c14.34 0 25.96-11.62 25.96-25.96S41.25 0 26.91 0" style="fill:#fff;fill-rule:evenodd"/></svg>